<?xml version="1.0" encoding="utf-8" standalone="no"?>
<!DOCTYPE svg PUBLIC "-//W3C//DTD SVG 1.1//EN"
  "http://www.w3.org/Graphics/SVG/1.1/DTD/svg11.dtd">
<svg xmlns:xlink="http://www.w3.org/1999/xlink" width="516.6pt" height="427.509937pt" viewBox="0 0 516.6 427.509937" xmlns="http://www.w3.org/2000/svg" version="1.1">
 <metadata>
  <rdf:RDF xmlns:dc="http://purl.org/dc/elements/1.1/" xmlns:cc="http://creativecommons.org/ns#" xmlns:rdf="http://www.w3.org/1999/02/22-rdf-syntax-ns#">
   <cc:Work>
    <dc:type rdf:resource="http://purl.org/dc/dcmitype/StillImage"/>
    <dc:format>image/svg+xml</dc:format>
    <dc:creator>
     <cc:Agent>
      <dc:title>Matplotlib v3.11.1, https://matplotlib.org/</dc:title>
     </cc:Agent>
    </dc:creator>
   </cc:Work>
  </rdf:RDF>
 </metadata>
 <defs>
  <style type="text/css">*{stroke-linejoin: round; stroke-linecap: butt}</style>
 </defs>
 <g id="figure_1">
  <g id="patch_1">
   <path d="M 0 427.509937 
L 516.6 427.509937 
L 516.6 -0 
L 0 -0 
z
" style="fill: #ffffff"/>
  </g>
  <g id="axes_1">
   <g id="text_1">
    <g id="patch_2">
     <path d="M 109.432031 82.279072 
L 407.167969 82.279072 
Q 414.167969 82.279072 414.167969 75.279072 
L 414.167969 51.273603 
Q 414.167969 44.273603 407.167969 44.273603 
L 109.432031 44.273603 
Q 102.432031 44.273603 102.432031 51.273603 
L 102.432031 75.279072 
Q 102.432031 82.279072 109.432031 82.279072 
z
" style="fill: #f0fdfa; stroke: #0f766e; stroke-linejoin: miter"/>
    </g>
    <text style="font-size: 10px; font-family: 'DejaVu Sans'" transform="translate(194.420313 59.873017)">1 · ENTSO-E observations</text>
    <text style="font-size: 10px; font-family: 'DejaVu Sans'" transform="translate(109.432031 71.875752)">A44 prices + A11 scheduled flows; capacity when available</text>
   </g>
   <g id="patch_3">
    <path d="M 258.3 86.618933 
Q 258.3 96.263126 258.3 104.230269 
" style="fill: none; stroke: #475569; stroke-width: 1.5; stroke-linecap: round"/>
    <path d="M 260.5 99.830269 
L 258.3 104.230269 
L 256.1 99.830269 
" style="fill: none; stroke: #475569; stroke-width: 1.5; stroke-linecap: round"/>
   </g>
   <g id="text_2">
    <g id="patch_4">
     <path d="M 106.395313 144.371872 
L 410.204687 144.371872 
Q 417.204687 144.371872 417.204687 137.371872 
L 417.204687 113.366403 
Q 417.204687 106.366403 410.204687 106.366403 
L 106.395313 106.366403 
Q 99.395313 106.366403 99.395313 113.366403 
L 99.395313 137.371872 
Q 99.395313 144.371872 106.395313 144.371872 
z
" style="fill: #f0fdfa; stroke: #0f766e; stroke-linejoin: miter"/>
    </g>
    <text style="font-size: 10px; font-family: 'DejaVu Sans'" transform="translate(213.594531 121.965817)">2 · Align and filter</text>
    <text style="font-size: 10px; font-family: 'DejaVu Sans'" transform="translate(106.395313 133.968552)">Known prices AND flow; 0.25 h samples; spread &gt; €5 events</text>
   </g>
   <g id="patch_5">
    <path d="M 258.3 148.711733 
Q 258.3 158.355926 258.3 166.323069 
" style="fill: none; stroke: #475569; stroke-width: 1.5; stroke-linecap: round"/>
    <path d="M 260.5 161.923069 
L 258.3 166.323069 
L 256.1 161.923069 
" style="fill: none; stroke: #475569; stroke-width: 1.5; stroke-linecap: round"/>
   </g>
   <g id="text_3">
    <g id="patch_6">
     <path d="M 82.795312 206.464281 
L 433.804688 206.464281 
Q 440.804688 206.464281 440.804688 199.464281 
L 440.804688 175.459594 
Q 440.804688 168.459594 433.804688 168.459594 
L 82.795312 168.459594 
Q 75.795312 168.459594 75.795312 175.459594 
L 75.795312 199.464281 
Q 75.795312 206.464281 82.795312 206.464281 
z
" style="fill: #f0fdfa; stroke: #0f766e; stroke-linejoin: miter"/>
    </g>
    <text style="font-size: 10px; font-family: 'DejaVu Sans'" transform="translate(192.355469 184.058227)">3 · Aggregate across 2025</text>
    <text style="font-size: 10px; font-family: 'DejaVu Sans'" transform="translate(82.795312 196.060961)">35,040 observed; 27,442 events; weighted event spread €57.47/MWh</text>
   </g>
   <g id="patch_7">
    <path d="M 258.3 210.804533 
Q 258.3 220.448726 258.3 228.415869 
" style="fill: none; stroke: #475569; stroke-width: 1.5; stroke-linecap: round"/>
    <path d="M 260.5 224.015869 
L 258.3 228.415869 
L 256.1 224.015869 
" style="fill: none; stroke: #475569; stroke-width: 1.5; stroke-linecap: round"/>
   </g>
   <g id="text_4">
    <g id="patch_8">
     <path d="M 123.092969 268.557472 
L 393.507031 268.557472 
Q 400.507031 268.557472 400.507031 261.557472 
L 400.507031 237.552003 
Q 400.507031 230.552003 393.507031 230.552003 
L 123.092969 230.552003 
Q 116.092969 230.552003 116.092969 237.552003 
L 116.092969 261.557472 
Q 116.092969 268.557472 123.092969 268.557472 
z
" style="fill: #fffbeb; stroke: #b45309; stroke-linejoin: miter"/>
    </g>
    <text style="font-size: 10px; font-family: 'DejaVu Sans'" transform="translate(166.453906 246.151417)">4 · Declare the response assumption</text>
    <text style="font-size: 10px; font-family: 'DejaVu Sans'" transform="translate(123.092969 258.154152)">Negative OLS fits → flow-derived fallback k = 0.04927</text>
   </g>
   <g id="patch_9">
    <path d="M 258.3 272.897333 
Q 258.3 282.541526 258.3 290.508669 
" style="fill: none; stroke: #475569; stroke-width: 1.5; stroke-linecap: round"/>
    <path d="M 260.5 286.108669 
L 258.3 290.508669 
L 256.1 286.108669 
" style="fill: none; stroke: #475569; stroke-width: 1.5; stroke-linecap: round"/>
   </g>
   <g id="text_5">
    <g id="patch_10">
     <path d="M 105.692188 330.650272 
L 410.907812 330.650272 
Q 417.907812 330.650272 417.907812 323.650272 
L 417.907812 299.644803 
Q 417.907812 292.644803 410.907812 292.644803 
L 105.692188 292.644803 
Q 98.692188 292.644803 98.692188 299.644803 
L 98.692188 323.650272 
Q 98.692188 330.650272 105.692188 330.650272 
z
" style="fill: #fffbeb; stroke: #b45309; stroke-linejoin: miter"/>
    </g>
    <text style="font-size: 10px; font-family: 'DejaVu Sans'" transform="translate(180.008594 308.244217)">5 · Integrate the modelled area</text>
    <text style="font-size: 10px; font-family: 'DejaVu Sans'" transform="translate(105.692188 320.246952)">Triangle €229.89m/year; +500 MW trapezoid €154.87m/year</text>
   </g>
   <g id="patch_11">
    <path d="M 258.3 334.990133 
Q 258.3 344.634326 258.3 352.601469 
" style="fill: none; stroke: #475569; stroke-width: 1.5; stroke-linecap: round"/>
    <path d="M 260.5 348.201469 
L 258.3 352.601469 
L 256.1 348.201469 
" style="fill: none; stroke: #475569; stroke-width: 1.5; stroke-linecap: round"/>
   </g>
   <g id="text_6">
    <g id="patch_12">
     <path d="M 93.478125 392.743072 
L 423.121875 392.743072 
Q 430.121875 392.743072 430.121875 385.743072 
L 430.121875 361.737603 
Q 430.121875 354.737603 423.121875 354.737603 
L 93.478125 354.737603 
Q 86.478125 354.737603 86.478125 361.737603 
L 86.478125 385.743072 
Q 86.478125 392.743072 93.478125 392.743072 
z
" style="fill: #fffbeb; stroke: #b45309; stroke-linejoin: miter"/>
    </g>
    <text style="font-size: 10px; font-family: 'DejaVu Sans'" transform="translate(167.946094 370.337017)">6 · Evaluate the scenario separately</text>
    <text style="font-size: 10px; font-family: 'DejaVu Sans'" transform="translate(93.478125 382.339752)">Gross welfare → capital assumptions, battery model and DWL cap</text>
   </g>
   <g id="text_7">
    <text style="font-weight: 700; font-size: 13.2px; font-family: 'DejaVu Sans'; text-anchor: middle" x="258.3" y="17.229938" transform="rotate(-0 258.3 17.229938)">Observed inputs → summaries → assumed model → scenario</text>
   </g>
  </g>
 </g>
</svg>
